<?xml version="1.0" standalone="no"?><!DOCTYPE svg PUBLIC "-//W3C//DTD SVG 1.1//EN" "http://www.w3.org/Graphics/SVG/1.1/DTD/svg11.dtd"><svg t="1582108025754" class="icon" viewBox="0 0 1036 1024" version="1.1" xmlns="http://www.w3.org/2000/svg" p-id="13869" xmlns:xlink="http://www.w3.org/1999/xlink" width="202.34375" height="200"><defs><style type="text/css"></style></defs><path d="M962.56 1017.173333H92.842667c-23.210667 0-45.056-9.557333-60.074667-27.306666-12.288-15.018667-17.749333-34.133333-15.018667-53.248 0-17.749333 6.826667-102.4 83.285334-180.224 87.381333-88.746667 230.741333-133.802667 425.984-133.802667s338.602667 45.056 425.984 133.802667c77.824 79.189333 83.285333 165.205333 83.285333 181.589333 2.730667 20.48-4.096 39.594667-16.384 54.613333-13.653333 16.384-34.133333 24.576-57.344 24.576zM528.384 684.032c-177.493333 0-305.834667 38.229333-380.928 114.688-66.901333 66.901333-66.901333 137.898667-66.901333 140.629333v5.461334c0 2.730667 0 4.096 1.365333 6.826666s5.461333 4.096 10.922667 4.096h869.717333c5.461333 0 9.557333-1.365333 10.922667-4.096 1.365333-1.365333 2.730667-4.096 1.365333-8.192v-5.461333c0-2.730667 0-73.728-66.901333-140.629333-75.093333-75.093333-203.434667-113.322667-379.562667-113.322667zM528.384 603.477333c-166.570667 0-300.373333-135.168-300.373333-300.373333s135.168-300.373333 300.373333-300.373333h270.336c16.384 0 31.402667 13.653333 31.402667 31.402666v270.336c-1.365333 163.84-136.533333 299.008-301.738667 299.008z m0-540.672c-132.437333 0-238.933333 107.861333-238.933333 238.933334 0 132.437333 107.861333 238.933333 238.933333 238.933333s238.933333-107.861333 238.933333-238.933333V62.805333H528.384z" fill="#ffffff" p-id="13870"></path><path d="M395.946667 322.218667c-16.384 0-31.402667-13.653333-31.402667-31.402667v-69.632c0-16.384 13.653333-31.402667 31.402667-31.402667s31.402667 13.653333 31.402666 31.402667v69.632c0 17.749333-13.653333 31.402667-31.402666 31.402667zM540.672 322.218667c-16.384 0-31.402667-13.653333-31.402667-31.402667v-69.632c0-16.384 13.653333-31.402667 31.402667-31.402667s31.402667 13.653333 31.402667 31.402667v69.632c0 17.749333-13.653333 31.402667-31.402667 31.402667z" fill="#ffffff" p-id="13871"></path></svg>