<?xml version="1.0" standalone="no"?><!DOCTYPE svg PUBLIC "-//W3C//DTD SVG 1.1//EN" "http://www.w3.org/Graphics/SVG/1.1/DTD/svg11.dtd"><svg t="1582099701604" class="icon" viewBox="0 0 1024 1024" version="1.1" xmlns="http://www.w3.org/2000/svg" p-id="4460" xmlns:xlink="http://www.w3.org/1999/xlink" width="200" height="200"><defs><style type="text/css"></style></defs><path d="M768 512c0-6.4-2.133333-10.666667-6.4-14.933333l0 0-469.333333-448 0 0C288 44.8 283.733333 42.666667 277.333333 42.666667c-12.8 0-21.333333 8.533333-21.333333 21.333333l0 896c0 12.8 8.533333 21.333333 21.333333 21.333333 6.4 0 10.666667-2.133333 14.933333-6.4l0 0 469.333333-448 0 0C765.866667 522.666667 768 518.4 768 512zM298.666667 910.933333 298.666667 113.066667 716.8 512 298.666667 910.933333z" p-id="4461"></path></svg>