<?xml version="1.0" standalone="no"?><!DOCTYPE svg PUBLIC "-//W3C//DTD SVG 1.1//EN" "http://www.w3.org/Graphics/SVG/1.1/DTD/svg11.dtd"><svg t="1582099737946" class="icon" viewBox="0 0 1024 1024" version="1.1" xmlns="http://www.w3.org/2000/svg" p-id="5569" xmlns:xlink="http://www.w3.org/1999/xlink" width="200" height="200"><defs><style type="text/css"></style></defs><path d="M917.375 931.625c-3.8437499999999996 0-7.687499999999999-1.5-10.59375-4.40625L650.9375 671.46875c-5.8125-5.8125-5.8125-15.374999999999998 0-21.1875 120.75000000000001-120.75000000000001 120.75000000000001-317.15625 0-437.90625-58.5-58.5-136.21875-90.75-219-90.75S271.53125 153.875 213.03125 212.375 122.375 348.59375 122.375 431.28125s32.25 160.5 90.65625 218.90625c86.71875 86.71875 216.75 114.1875 331.125 69.75 7.781250000000001-3 16.40625 0.84375 19.40625 8.53125 3 7.687499999999999-0.84375 16.40625-8.53125 19.40625-125.53125 48.75-268.03125 18.65625-363.1875-76.40625-64.125-64.21875-99.46875-149.4375-99.46875-240.1875s35.34375-175.96875 99.46875-240.1875S341.28125 91.625 431.9375 91.625s176.0625 35.34375 240.1875 99.46875C801.03125 320 804.5 527.46875 682.53125 660.59375l245.4375 245.4375c5.8125 5.8125 5.8125 15.374999999999998 0 21.1875-2.90625 3-6.75 4.40625-10.59375 4.40625z" p-id="5570"></path></svg>